<?xml version="1.0" standalone="no"?>
<!DOCTYPE svg PUBLIC "-//W3C//DTD SVG 20010904//EN"
 "http://www.w3.org/TR/2001/REC-SVG-20010904/DTD/svg10.dtd">
<svg version="1.0" xmlns="http://www.w3.org/2000/svg"
 width="700.000000pt" height="700.000000pt" viewBox="0 0 700.000000 700.000000"
 preserveAspectRatio="xMidYMid meet">
<metadata>
Created by potrace 1.14, written by Peter Selinger 2001-2017
</metadata>
<g transform="translate(0.000000,700.000000) scale(0.100000,-0.100000)"
fill="#000000" stroke="none">
<path d="M0 3500 l0 -3500 3500 0 3500 0 0 3500 0 3500 -3500 0 -3500 0 0
-3500z m3807 1254 c178 -37 344 -122 436 -224 82 -91 157 -242 194 -386 24
-94 23 -426 -1 -609 -40 -299 -86 -463 -192 -685 -107 -222 -210 -359 -362
-481 -142 -115 -291 -166 -452 -156 -117 8 -266 48 -378 103 -121 59 -238 170
-296 282 -74 143 -119 398 -119 672 0 456 121 887 321 1146 147 190 301 296
494 338 87 19 262 19 355 0z m-2847 -693 c91 -17 247 -42 345 -56 381 -54 965
-162 965 -178 -1 -38 -54 -283 -62 -289 -7 -5 -22 -6 -33 -3 -11 3 -87 15
-170 26 -82 11 -262 38 -400 60 -137 21 -313 48 -390 60 -198 28 -507 88 -523
101 -7 7 -11 22 -7 37 3 14 9 76 14 136 6 61 13 118 17 129 8 21 12 21 244
-23z m3946 -691 c34 -13 370 -71 574 -100 232 -32 883 -149 894 -160 9 -9 -28
-271 -41 -294 -3 -4 -24 -6 -47 -3 -22 3 -79 10 -126 17 -86 11 -515 76 -735
111 -66 11 -158 24 -205 30 -133 15 -396 71 -411 86 -10 10 14 294 26 312 8
14 36 14 71 1z"/>
<path d="M3505 3862 c-87 -41 -146 -136 -192 -309 -22 -84 -26 -120 -27 -248
-1 -166 5 -189 64 -239 65 -54 187 -61 258 -14 114 76 196 301 197 538 0 106
-2 119 -28 173 -22 43 -39 63 -73 83 -60 35 -144 42 -199 16z"/>
</g>
</svg>
